
<svg
  version="1.0"
  xmlns="http://www.w3.org/2000/svg"
  xmlns:xlink="http://www.w3.org/1999/xlink"
  width="2400"
  height="1800"
>
  
  <rect
    x="0"
    y="0"
    width="100%"
    height="100%"
    fill="#fff"
    fill-opacity="1"
  ></rect>
  <svg
    version="1.0"
    xmlns="http://www.w3.org/2000/svg"
    xmlns:xlink="http://www.w3.org/1999/xlink"
    x="0"
    y="0"
    width="2400"
    height="1800"
    viewBox="0 0 340.000000 250.000000"
    preserveAspectRatio="xMidYMid meet"
    color-interpolation-filters="sRGB"
  >
    <defs><linearGradient id="92" x1="0%" y1="0%" x2="100%" y2="0%"><stop offset="0%" stop-color="#fa71cd"/> <stop offset="100%" stop-color="#9b59b6"/></linearGradient><linearGradient id="93" x1="0%" y1="0%" x2="100%" y2="0%"><stop offset="0%" stop-color="#f9d423"/> <stop offset="100%" stop-color="#f83600"/></linearGradient><linearGradient id="94" x1="0%" y1="0%" x2="100%" y2="0%"><stop offset="0%" stop-color="#0064d2"/> <stop offset="100%" stop-color="#1cb0f6"/></linearGradient><linearGradient id="95" x1="0%" y1="0%" x2="100%" y2="0%"><stop offset="0%" stop-color="#f00978"/> <stop offset="100%" stop-color="#3f51b1"/></linearGradient><linearGradient id="96" x1="0%" y1="0%" x2="100%" y2="0%"><stop offset="0%" stop-color="#7873f5"/> <stop offset="100%" stop-color="#ec77ab"/></linearGradient><linearGradient id="97" x1="0%" y1="0%" x2="100%" y2="0%"><stop offset="0%" stop-color="#f9d423"/> <stop offset="100%" stop-color="#e14fad"/></linearGradient><linearGradient id="98" x1="0%" y1="0%" x2="100%" y2="0%"><stop offset="0%" stop-color="#009efd"/> <stop offset="100%" stop-color="#2af598"/></linearGradient><linearGradient id="99" x1="0%" y1="0%" x2="100%" y2="0%"><stop offset="0%" stop-color="#ffcc00"/> <stop offset="100%" stop-color="#00b140"/></linearGradient><linearGradient id="100" x1="0%" y1="0%" x2="100%" y2="0%"><stop offset="0%" stop-color="#d51007"/> <stop offset="100%" stop-color="#ff8177"/></linearGradient><linearGradient id="102" x1="0%" y1="0%" x2="100%" y2="0%"><stop offset="0%" stop-color="#a2b6df"/> <stop offset="100%" stop-color="#0c3483"/></linearGradient><linearGradient id="103" x1="0%" y1="0%" x2="100%" y2="0%"><stop offset="0%" stop-color="#7ac5d8"/> <stop offset="100%" stop-color="#eea2a2"/></linearGradient><linearGradient id="104" x1="0%" y1="0%" x2="100%" y2="0%"><stop offset="0%" stop-color="#00ecbc"/> <stop offset="100%" stop-color="#007adf"/></linearGradient><linearGradient id="105" x1="0%" y1="0%" x2="100%" y2="0%"><stop offset="0%" stop-color="#b88746"/> <stop offset="100%" stop-color="#fdf5a6"/></linearGradient></defs> <g fill="#df81b3" class="icon-text-wrapper icon-svg-group iconsvg" transform="translate(50.56999969482422,85.9308853149414)"><g class="iconsvg-imagesvg" transform="translate(0,0)"><g><rect fill="#df81b3" fill-opacity="0" stroke-width="2" x="0" y="0" width="60" height="78.13822652271868" class="image-rect"/> <svg x="0" y="0" width="60" height="78.13822652271868" filtersec="colorsb8843155327" class="image-svg-svg primary" style="overflow: visible;"><svg xmlns="http://www.w3.org/2000/svg" viewBox="0 -0.0048868232406675816 130.54086303710938 170.0048828125"><g><g><path d="M90.6 150H44.5V96zm9.2-106.7a12.5 12.5 0 0 0-12.5-12.5H14.7v25h72.6a12.5 12.5 0 0 0 12.5-12.5zM72.2 82.6h17.7A41.3 41.3 0 0 0 88.6 0H14.7v20.8h72.6a22.5 22.5 0 1 1 0 45H14.7V150h19.8V69.3l10 11.7 59 69h26.2zM34.5 69.3V150h10V96l46.1 54h12.9l-59-69zm75.3-26a22.5 22.5 0 0 0-22.5-22.5H14.7v10h72.6a12.5 12.5 0 1 1 0 25H14.7v10h72.6a22.5 22.5 0 0 0 22.5-22.5z" fill="#df81b3"/><path fill="#14aca0" d="M99.1 159.9H44.5V150h-10v20H120.6l-17.1-20H90.6l8.5 9.9z"/><path fill="#25556f" d="M34.5 69.3V150h10V96l46.1 54h12.9l-59-69-10-11.7z"/><path d="M14.7 20.8v10H0v-10zM0 55.8v10h14.7v-10z" fill="#e23b88"/><path d="M109.8 43.3a22.5 22.5 0 0 0-22.5-22.5H14.7v10h72.6a12.5 12.5 0 1 1 0 25H14.7v10h72.6a22.5 22.5 0 0 0 22.5-22.5z" fill="#b92d5f"/></g></g></svg></svg> </g></g> <g transform="translate(67,14.90411376953125)"><g fill-rule="" class="tp-name iconsvg-namesvg"><g transform="scale(1)"><g><path d="M28.57-16.84L28.57-16.84Q29.02-16.05 29.36-15.19 29.71-14.33 30.03-13.46L30.03-13.46Q30.36-14.37 30.71-15.19 31.07-16.02 31.53-16.87L31.53-16.87 47.29-45.5Q47.71-46.25 48.16-46.41 48.62-46.57 49.47-46.57L49.47-46.57 54.11-46.57 54.11 0 48.59 0 48.59-34.22Q48.59-34.91 48.62-35.69 48.65-36.47 48.72-37.28L48.72-37.28 32.76-8.16Q31.95-6.7 30.48-6.7L30.48-6.7 29.57-6.7Q28.11-6.7 27.3-8.16L27.3-8.16 10.99-37.38Q11.08-36.53 11.13-35.72 11.18-34.91 11.18-34.22L11.18-34.22 11.18 0 5.66 0 5.66-46.57 10.3-46.57Q11.15-46.57 11.6-46.41 12.06-46.25 12.48-45.5L12.48-45.5 28.57-16.84ZM77.87-33.44L77.87-33.44Q81.48-33.44 84.39-32.24 87.3-31.04 89.33-28.83 91.36-26.62 92.45-23.48 93.53-20.35 93.53-16.48L93.53-16.48Q93.53-12.58 92.45-9.46 91.36-6.34 89.33-4.13 87.3-1.92 84.39-0.73 81.48 0.46 77.87 0.46L77.87 0.46Q74.26 0.46 71.35-0.73 68.45-1.92 66.4-4.13 64.35-6.34 63.25-9.46 62.14-12.58 62.14-16.48L62.14-16.48Q62.14-20.35 63.25-23.48 64.35-26.62 66.4-28.83 68.45-31.04 71.35-32.24 74.26-33.44 77.87-33.44ZM77.87-4.06L77.87-4.06Q82.75-4.06 85.15-7.33 87.56-10.6 87.56-16.45L87.56-16.45Q87.56-22.33 85.15-25.61 82.75-28.89 77.87-28.89L77.87-28.89Q75.4-28.89 73.58-28.05 71.76-27.2 70.54-25.61 69.32-24.02 68.72-21.69 68.12-19.37 68.12-16.45L68.12-16.45Q68.12-13.52 68.72-11.21 69.32-8.91 70.54-7.33 71.76-5.75 73.58-4.91 75.4-4.06 77.87-4.06ZM127.3 0L123.86 0Q122.62 0 122.3-1.2L122.3-1.2 121.78-5.2Q119.66-2.63 116.95-1.09 114.24 0.46 110.73 0.46L110.73 0.46Q107.9 0.46 105.59-0.63 103.28-1.72 101.66-3.83 100.03-5.95 99.16-9.1 98.28-12.25 98.28-16.35L98.28-16.35Q98.28-19.99 99.25-23.12 100.23-26.26 102.07-28.57 103.9-30.88 106.53-32.19 109.17-33.51 112.52-33.51L112.52-33.51Q115.54-33.51 117.68-32.48 119.83-31.46 121.52-29.61L121.52-29.61 121.52-47.87 127.3-47.87 127.3 0ZM112.64-4.23L112.64-4.23Q115.47-4.23 117.6-5.53 119.73-6.83 121.52-9.2L121.52-9.2 121.52-25.12Q119.92-27.27 118.02-28.13 116.12-28.99 113.81-28.99L113.81-28.99Q109.2-28.99 106.73-25.71 104.26-22.43 104.26-16.35L104.26-16.35Q104.26-13.13 104.81-10.84 105.36-8.55 106.44-7.07 107.51-5.59 109.07-4.91 110.63-4.23 112.64-4.23ZM150.05-33.44L150.05-33.44Q153.01-33.44 155.51-32.45 158.02-31.46 159.84-29.59 161.66-27.72 162.68-24.98 163.7-22.23 163.7-18.72L163.7-18.72Q163.7-17.36 163.41-16.9 163.12-16.45 162.31-16.45L162.31-16.45 140.4-16.45Q140.47-13.33 141.25-11.02 142.03-8.71 143.39-7.17 144.75-5.62 146.64-4.86 148.53-4.09 150.87-4.09L150.87-4.09Q153.04-4.09 154.62-4.6 156.19-5.1 157.33-5.69 158.47-6.27 159.23-6.78 160-7.28 160.55-7.28L160.55-7.28Q161.27-7.28 161.66-6.73L161.66-6.73 163.28-4.62Q162.21-3.31 160.71-2.36 159.22-1.4 157.51-0.78 155.81-0.16 153.99 0.15 152.17 0.46 150.38 0.46L150.38 0.46Q146.97 0.46 144.09-0.7 141.21-1.85 139.12-4.08 137.02-6.31 135.85-9.59 134.68-12.87 134.68-17.13L134.68-17.13Q134.68-20.57 135.74-23.56 136.79-26.55 138.78-28.75 140.76-30.94 143.62-32.19 146.48-33.44 150.05-33.44ZM150.18-29.19L150.18-29.19Q145.99-29.19 143.59-26.76 141.18-24.34 140.59-20.05L140.59-20.05 158.5-20.05Q158.5-22.07 157.95-23.74 157.4-25.41 156.33-26.63 155.25-27.85 153.71-28.52 152.17-29.19 150.18-29.19ZM171.73-47.87L177.52-47.87 177.52 0 171.73 0 171.73-47.87Z" transform="translate(-5.659999847412109, 47.869998931884766)"/></g> </g></g> </g></g><defs v-gra="od"/>
  </svg>
</svg>


